<mxfile host="app.diagrams.net" agent="Mozilla/5.0 (Windows NT 10.0; Win64; x64) AppleWebKit/537.36 (KHTML, like Gecko) Chrome/128.0.0.0 Safari/537.36" version="24.7.17">
  <diagram name="Page-1" id="e0mIoJfyaJ8pd-Rk0ZnT">
    <mxGraphModel dx="1235" dy="614" grid="1" gridSize="10" guides="1" tooltips="1" connect="1" arrows="1" fold="1" page="1" pageScale="1" pageWidth="850" pageHeight="1100" math="0" shadow="0">
      <root>
        <mxCell id="0" />
        <mxCell id="1" parent="0" />
        <mxCell id="pi4BH6lO8GzPQHXwxrGS-1" value="Admin" style="shape=umlActor;verticalLabelPosition=bottom;verticalAlign=top;html=1;outlineConnect=0;" vertex="1" parent="1">
          <mxGeometry x="110" y="465" width="30" height="60" as="geometry" />
        </mxCell>
        <mxCell id="pi4BH6lO8GzPQHXwxrGS-2" value="Utilizator" style="shape=umlActor;verticalLabelPosition=bottom;verticalAlign=top;html=1;outlineConnect=0;" vertex="1" parent="1">
          <mxGeometry x="100" y="110" width="30" height="60" as="geometry" />
        </mxCell>
        <mxCell id="pi4BH6lO8GzPQHXwxrGS-10" value="1" style="whiteSpace=wrap;html=1;aspect=fixed;align=center;verticalAlign=top;" vertex="1" parent="1">
          <mxGeometry x="220" y="10" width="650" height="650" as="geometry" />
        </mxCell>
        <mxCell id="pi4BH6lO8GzPQHXwxrGS-11" value="Login" style="ellipse;whiteSpace=wrap;html=1;fillColor=#e3c800;strokeColor=#B09500;fontColor=#000000;" vertex="1" parent="1">
          <mxGeometry x="720" y="50" width="120" height="40" as="geometry" />
        </mxCell>
        <mxCell id="pi4BH6lO8GzPQHXwxrGS-12" value="Manage inventory" style="ellipse;whiteSpace=wrap;html=1;fillColor=#e51400;fontColor=#ffffff;strokeColor=#B20000;" vertex="1" parent="1">
          <mxGeometry x="440" y="470" width="120" height="50" as="geometry" />
        </mxCell>
        <mxCell id="pi4BH6lO8GzPQHXwxrGS-13" value="Add item" style="ellipse;whiteSpace=wrap;html=1;fillColor=#b1ddf0;strokeColor=#10739e;" vertex="1" parent="1">
          <mxGeometry x="320" y="560" width="90" height="40" as="geometry" />
        </mxCell>
        <mxCell id="pi4BH6lO8GzPQHXwxrGS-14" value="Delete item" style="ellipse;whiteSpace=wrap;html=1;fillColor=#b1ddf0;strokeColor=#10739e;" vertex="1" parent="1">
          <mxGeometry x="470" y="600" width="90" height="40" as="geometry" />
        </mxCell>
        <mxCell id="pi4BH6lO8GzPQHXwxrGS-15" value="Update item" style="ellipse;whiteSpace=wrap;html=1;fillColor=#b1ddf0;strokeColor=#10739e;" vertex="1" parent="1">
          <mxGeometry x="620" y="560" width="90" height="40" as="geometry" />
        </mxCell>
        <mxCell id="pi4BH6lO8GzPQHXwxrGS-18" value="&amp;lt;&amp;lt;extend&amp;gt;&amp;gt;" style="html=1;verticalAlign=bottom;endArrow=open;dashed=1;endSize=8;curved=0;rounded=0;exitX=0.5;exitY=0;exitDx=0;exitDy=0;entryX=0.103;entryY=0.736;entryDx=0;entryDy=0;entryPerimeter=0;" edge="1" parent="1" source="pi4BH6lO8GzPQHXwxrGS-13" target="pi4BH6lO8GzPQHXwxrGS-12">
          <mxGeometry relative="1" as="geometry">
            <mxPoint x="460" y="460" as="sourcePoint" />
            <mxPoint x="380" y="460" as="targetPoint" />
          </mxGeometry>
        </mxCell>
        <mxCell id="pi4BH6lO8GzPQHXwxrGS-20" value="&amp;lt;&amp;lt;include&amp;gt;&amp;gt;" style="html=1;verticalAlign=bottom;endArrow=open;dashed=1;endSize=8;curved=0;rounded=0;exitX=1;exitY=0.5;exitDx=0;exitDy=0;" edge="1" parent="1" source="pi4BH6lO8GzPQHXwxrGS-12" target="pi4BH6lO8GzPQHXwxrGS-11">
          <mxGeometry x="0.0527" y="10" relative="1" as="geometry">
            <mxPoint x="385" y="580" as="sourcePoint" />
            <mxPoint x="472" y="527" as="targetPoint" />
            <Array as="points">
              <mxPoint x="840" y="500" />
              <mxPoint x="840" y="100" />
            </Array>
            <mxPoint as="offset" />
          </mxGeometry>
        </mxCell>
        <mxCell id="pi4BH6lO8GzPQHXwxrGS-21" value="&amp;lt;&amp;lt;extend&amp;gt;&amp;gt;" style="html=1;verticalAlign=bottom;endArrow=open;dashed=1;endSize=8;curved=0;rounded=0;entryX=0.57;entryY=1.024;entryDx=0;entryDy=0;entryPerimeter=0;exitX=0.5;exitY=0;exitDx=0;exitDy=0;" edge="1" parent="1" source="pi4BH6lO8GzPQHXwxrGS-14" target="pi4BH6lO8GzPQHXwxrGS-12">
          <mxGeometry relative="1" as="geometry">
            <mxPoint x="649" y="574" as="sourcePoint" />
            <mxPoint x="562" y="519" as="targetPoint" />
            <Array as="points">
              <mxPoint x="510" y="560" />
            </Array>
          </mxGeometry>
        </mxCell>
        <mxCell id="pi4BH6lO8GzPQHXwxrGS-22" value="&amp;lt;&amp;lt;extend&amp;gt;&amp;gt;" style="html=1;verticalAlign=bottom;endArrow=open;dashed=1;endSize=8;curved=0;rounded=0;entryX=0.923;entryY=0.768;entryDx=0;entryDy=0;entryPerimeter=0;" edge="1" parent="1" target="pi4BH6lO8GzPQHXwxrGS-12">
          <mxGeometry relative="1" as="geometry">
            <mxPoint x="649" y="574" as="sourcePoint" />
            <mxPoint x="562" y="519" as="targetPoint" />
            <Array as="points">
              <mxPoint x="610" y="550" />
            </Array>
          </mxGeometry>
        </mxCell>
        <mxCell id="pi4BH6lO8GzPQHXwxrGS-23" value="" style="line;strokeWidth=1;fillColor=none;align=left;verticalAlign=middle;spacingTop=-1;spacingLeft=3;spacingRight=3;rotatable=0;labelPosition=right;points=[];portConstraint=eastwest;strokeColor=inherit;" vertex="1" parent="1">
          <mxGeometry x="130" y="491" width="310" height="8" as="geometry" />
        </mxCell>
        <mxCell id="pi4BH6lO8GzPQHXwxrGS-24" value="Register" style="ellipse;whiteSpace=wrap;html=1;fillColor=#e3c800;strokeColor=#B09500;fontColor=#000000;" vertex="1" parent="1">
          <mxGeometry x="710" y="180" width="120" height="40" as="geometry" />
        </mxCell>
        <mxCell id="pi4BH6lO8GzPQHXwxrGS-25" value="Authentication System" style="ellipse;whiteSpace=wrap;html=1;fillColor=#e51400;fontColor=#ffffff;strokeColor=#B20000;" vertex="1" parent="1">
          <mxGeometry x="580" y="160" width="120" height="40" as="geometry" />
        </mxCell>
        <mxCell id="pi4BH6lO8GzPQHXwxrGS-26" value="" style="endArrow=none;html=1;rounded=0;" edge="1" parent="1" target="pi4BH6lO8GzPQHXwxrGS-25">
          <mxGeometry width="50" height="50" relative="1" as="geometry">
            <mxPoint x="140" y="170" as="sourcePoint" />
            <mxPoint x="450" y="240" as="targetPoint" />
            <Array as="points">
              <mxPoint x="500" y="200" />
            </Array>
          </mxGeometry>
        </mxCell>
        <mxCell id="pi4BH6lO8GzPQHXwxrGS-27" value="&amp;lt;&amp;lt;extend&amp;gt;&amp;gt;" style="html=1;verticalAlign=bottom;endArrow=open;dashed=1;endSize=8;curved=0;rounded=0;" edge="1" parent="1" source="pi4BH6lO8GzPQHXwxrGS-24" target="pi4BH6lO8GzPQHXwxrGS-25">
          <mxGeometry relative="1" as="geometry">
            <mxPoint x="659" y="584" as="sourcePoint" />
            <mxPoint x="561" y="518" as="targetPoint" />
            <Array as="points">
              <mxPoint x="720" y="170" />
            </Array>
          </mxGeometry>
        </mxCell>
        <mxCell id="pi4BH6lO8GzPQHXwxrGS-28" value="&amp;lt;&amp;lt;extend&amp;gt;&amp;gt;" style="html=1;verticalAlign=bottom;endArrow=open;dashed=1;endSize=8;curved=0;rounded=0;exitX=0;exitY=1;exitDx=0;exitDy=0;entryX=0.72;entryY=0;entryDx=0;entryDy=0;entryPerimeter=0;" edge="1" parent="1" source="pi4BH6lO8GzPQHXwxrGS-11" target="pi4BH6lO8GzPQHXwxrGS-25">
          <mxGeometry relative="1" as="geometry">
            <mxPoint x="580" y="90" as="sourcePoint" />
            <mxPoint x="596" y="140" as="targetPoint" />
            <Array as="points" />
          </mxGeometry>
        </mxCell>
        <mxCell id="pi4BH6lO8GzPQHXwxrGS-29" value="Products system" style="ellipse;whiteSpace=wrap;html=1;fillColor=#e51400;fontColor=#ffffff;strokeColor=#B20000;" vertex="1" parent="1">
          <mxGeometry x="290" y="30" width="120" height="50" as="geometry" />
        </mxCell>
        <mxCell id="pi4BH6lO8GzPQHXwxrGS-30" value="Search" style="ellipse;whiteSpace=wrap;html=1;fillColor=#e3c800;strokeColor=#B09500;fontColor=#000000;" vertex="1" parent="1">
          <mxGeometry x="390" y="110" width="120" height="40" as="geometry" />
        </mxCell>
        <mxCell id="pi4BH6lO8GzPQHXwxrGS-31" value="Filter" style="ellipse;whiteSpace=wrap;html=1;fillColor=#e3c800;strokeColor=#B09500;fontColor=#000000;" vertex="1" parent="1">
          <mxGeometry x="250" y="110" width="120" height="40" as="geometry" />
        </mxCell>
        <mxCell id="pi4BH6lO8GzPQHXwxrGS-32" value="&amp;lt;&amp;lt;extend&amp;gt;&amp;gt;" style="html=1;verticalAlign=bottom;endArrow=open;dashed=1;endSize=8;curved=0;rounded=0;entryX=0.307;entryY=0.928;entryDx=0;entryDy=0;entryPerimeter=0;" edge="1" parent="1" target="pi4BH6lO8GzPQHXwxrGS-29">
          <mxGeometry relative="1" as="geometry">
            <mxPoint x="290" y="100" as="sourcePoint" />
            <mxPoint x="616" y="130" as="targetPoint" />
            <Array as="points">
              <mxPoint x="260" y="120" />
            </Array>
          </mxGeometry>
        </mxCell>
        <mxCell id="pi4BH6lO8GzPQHXwxrGS-33" value="&amp;lt;&amp;lt;extend&amp;gt;&amp;gt;" style="html=1;verticalAlign=bottom;endArrow=open;dashed=1;endSize=8;curved=0;rounded=0;entryX=1;entryY=1;entryDx=0;entryDy=0;exitX=0.387;exitY=0.12;exitDx=0;exitDy=0;exitPerimeter=0;" edge="1" parent="1" source="pi4BH6lO8GzPQHXwxrGS-30" target="pi4BH6lO8GzPQHXwxrGS-29">
          <mxGeometry relative="1" as="geometry">
            <mxPoint x="580" y="90" as="sourcePoint" />
            <mxPoint x="590" y="130" as="targetPoint" />
            <Array as="points" />
          </mxGeometry>
        </mxCell>
        <mxCell id="pi4BH6lO8GzPQHXwxrGS-34" value="" style="endArrow=none;html=1;rounded=0;exitX=1;exitY=0.3333333333333333;exitDx=0;exitDy=0;exitPerimeter=0;entryX=0;entryY=0.5;entryDx=0;entryDy=0;" edge="1" parent="1" source="pi4BH6lO8GzPQHXwxrGS-2" target="pi4BH6lO8GzPQHXwxrGS-29">
          <mxGeometry width="50" height="50" relative="1" as="geometry">
            <mxPoint x="400" y="240" as="sourcePoint" />
            <mxPoint x="450" y="190" as="targetPoint" />
            <Array as="points">
              <mxPoint x="180" y="110" />
            </Array>
          </mxGeometry>
        </mxCell>
        <mxCell id="pi4BH6lO8GzPQHXwxrGS-35" value="Cart System" style="ellipse;whiteSpace=wrap;html=1;fillColor=#e51400;fontColor=#ffffff;strokeColor=#B20000;" vertex="1" parent="1">
          <mxGeometry x="305" y="290" width="120" height="40" as="geometry" />
        </mxCell>
        <mxCell id="pi4BH6lO8GzPQHXwxrGS-37" value="Remove from cart" style="ellipse;whiteSpace=wrap;html=1;fillColor=#e3c800;strokeColor=#B09500;fontColor=#000000;" vertex="1" parent="1">
          <mxGeometry x="370" y="400" width="120" height="40" as="geometry" />
        </mxCell>
        <mxCell id="pi4BH6lO8GzPQHXwxrGS-38" value="Add to cart" style="ellipse;whiteSpace=wrap;html=1;fillColor=#e3c800;strokeColor=#B09500;fontColor=#000000;" vertex="1" parent="1">
          <mxGeometry x="225" y="400" width="120" height="40" as="geometry" />
        </mxCell>
        <mxCell id="pi4BH6lO8GzPQHXwxrGS-39" value="&amp;lt;&amp;lt;extend&amp;gt;&amp;gt;" style="html=1;verticalAlign=bottom;endArrow=open;dashed=1;endSize=8;curved=0;rounded=0;exitX=0.407;exitY=-0.01;exitDx=0;exitDy=0;entryX=0.662;entryY=0.94;entryDx=0;entryDy=0;entryPerimeter=0;exitPerimeter=0;" edge="1" parent="1" source="pi4BH6lO8GzPQHXwxrGS-37" target="pi4BH6lO8GzPQHXwxrGS-35">
          <mxGeometry relative="1" as="geometry">
            <mxPoint x="375" y="570" as="sourcePoint" />
            <mxPoint x="462" y="517" as="targetPoint" />
          </mxGeometry>
        </mxCell>
        <mxCell id="pi4BH6lO8GzPQHXwxrGS-40" value="&amp;lt;&amp;lt;extend&amp;gt;&amp;gt;" style="html=1;verticalAlign=bottom;endArrow=open;dashed=1;endSize=8;curved=0;rounded=0;exitX=0.588;exitY=0.07;exitDx=0;exitDy=0;entryX=0.302;entryY=0.88;entryDx=0;entryDy=0;entryPerimeter=0;exitPerimeter=0;" edge="1" parent="1" source="pi4BH6lO8GzPQHXwxrGS-38" target="pi4BH6lO8GzPQHXwxrGS-35">
          <mxGeometry relative="1" as="geometry">
            <mxPoint x="385" y="580" as="sourcePoint" />
            <mxPoint x="472" y="527" as="targetPoint" />
          </mxGeometry>
        </mxCell>
        <mxCell id="pi4BH6lO8GzPQHXwxrGS-41" value="" style="endArrow=none;html=1;rounded=0;entryX=1;entryY=1;entryDx=0;entryDy=0;entryPerimeter=0;exitX=0.082;exitY=0.2;exitDx=0;exitDy=0;exitPerimeter=0;" edge="1" parent="1" source="pi4BH6lO8GzPQHXwxrGS-35" target="pi4BH6lO8GzPQHXwxrGS-2">
          <mxGeometry width="50" height="50" relative="1" as="geometry">
            <mxPoint x="400" y="340" as="sourcePoint" />
            <mxPoint x="450" y="290" as="targetPoint" />
          </mxGeometry>
        </mxCell>
        <mxCell id="pi4BH6lO8GzPQHXwxrGS-42" value="Checkout System" style="ellipse;whiteSpace=wrap;html=1;fillColor=#e51400;fontColor=#ffffff;strokeColor=#B20000;" vertex="1" parent="1">
          <mxGeometry x="520" y="330" width="120" height="40" as="geometry" />
        </mxCell>
        <mxCell id="pi4BH6lO8GzPQHXwxrGS-43" value="" style="endArrow=none;html=1;rounded=0;entryX=0.277;entryY=0.115;entryDx=0;entryDy=0;entryPerimeter=0;" edge="1" parent="1" target="pi4BH6lO8GzPQHXwxrGS-42">
          <mxGeometry width="50" height="50" relative="1" as="geometry">
            <mxPoint x="140" y="170" as="sourcePoint" />
            <mxPoint x="450" y="290" as="targetPoint" />
          </mxGeometry>
        </mxCell>
        <mxCell id="pi4BH6lO8GzPQHXwxrGS-44" value="Mailing System" style="ellipse;whiteSpace=wrap;html=1;fillColor=#647687;fontColor=#ffffff;strokeColor=#314354;" vertex="1" parent="1">
          <mxGeometry x="700" y="290" width="120" height="40" as="geometry" />
        </mxCell>
        <mxCell id="pi4BH6lO8GzPQHXwxrGS-45" value="&amp;lt;&amp;lt;include&amp;gt;&amp;gt;" style="html=1;verticalAlign=bottom;endArrow=open;dashed=1;endSize=8;curved=0;rounded=0;exitX=0.77;exitY=0.04;exitDx=0;exitDy=0;entryX=0.223;entryY=0.88;entryDx=0;entryDy=0;entryPerimeter=0;exitPerimeter=0;" edge="1" parent="1" source="pi4BH6lO8GzPQHXwxrGS-42" target="pi4BH6lO8GzPQHXwxrGS-44">
          <mxGeometry relative="1" as="geometry">
            <mxPoint x="375" y="570" as="sourcePoint" />
            <mxPoint x="462" y="517" as="targetPoint" />
          </mxGeometry>
        </mxCell>
        <mxCell id="pi4BH6lO8GzPQHXwxrGS-46" value="&amp;lt;&amp;lt;include&amp;gt;&amp;gt;" style="html=1;verticalAlign=bottom;endArrow=open;dashed=1;endSize=8;curved=0;rounded=0;exitX=0.373;exitY=0.99;exitDx=0;exitDy=0;entryX=0.303;entryY=0.1;entryDx=0;entryDy=0;entryPerimeter=0;exitPerimeter=0;" edge="1" parent="1" source="pi4BH6lO8GzPQHXwxrGS-24" target="pi4BH6lO8GzPQHXwxrGS-44">
          <mxGeometry relative="1" as="geometry">
            <mxPoint x="642" y="342" as="sourcePoint" />
            <mxPoint x="737" y="335" as="targetPoint" />
          </mxGeometry>
        </mxCell>
      </root>
    </mxGraphModel>
  </diagram>
</mxfile>
